{
  "accessors": [
    {
      "bufferView": 2,
      "componentType": 5126,
      "count": 273,
      "max": [
        0.8868072032928467,
        0.10043761134147644,
        3.4550044536590576
      ],
      "min": [
        -0.8868072032928467,
        -0.10043761134147644,
        -0.8868072032928467
      ],
      "type": "VEC3"
    },
    {
      "bufferView": 2,
      "byteOffset": 3276,
      "componentType": 5126,
      "count": 273,
      "max": [
        1.0,
        1.0,
        1.0
      ],
      "min": [
        -1.0,
        -1.0,
        -1.0
      ],
      "type": "VEC3"
    },
    {
      "bufferView": 1,
      "componentType": 5126,
      "count": 273,
      "max": [
        0.875,
        1.0
      ],
      "min": [
        0.125,
        0.0
      ],
      "type": "VEC2"
    },
    {
      "bufferView": 0,
      "componentType": 5125,
      "count": 708,
      "type": "SCALAR"
    },
    {
      "bufferView": 2,
      "byteOffset": 6552,
      "componentType": 5126,
      "count": 999,
      "max": [
        0.8958607912063599,
        0.10745386779308319,
        3.4840171337127686
      ],
      "min": [
        -0.8958607912063599,
        -0.10745386779308319,
        -0.9058558940887451
      ],
      "type": "VEC3"
    },
    {
      "bufferView": 2,
      "byteOffset": 18540,
      "componentType": 5126,
      "count": 999,
      "max": [
        0.9929388761520386,
        1.0,
        1.0
      ],
      "min": [
        -1.0,
        -1.0,
        -0.9992680549621582
      ],
      "type": "VEC3"
    },
    {
      "bufferView": 1,
      "byteOffset": 2184,
      "componentType": 5126,
      "count": 999,
      "max": [
        0.8750000596046448,
        0.9166666865348816
      ],
      "min": [
        0.0,
        0.0
      ],
      "type": "VEC2"
    },
    {
      "bufferView": 0,
      "byteOffset": 2832,
      "componentType": 5125,
      "count": 3552,
      "type": "SCALAR"
    },
    {
      "bufferView": 2,
      "byteOffset": 30528,
      "componentType": 5126,
      "count": 204,
      "max": [
        0.8562831282615662,
        0.14891217648983002,
        3.4317593574523926
      ],
      "min": [
        -0.8562831282615662,
        0.10043761134147644,
        -0.8376331329345703
      ],
      "type": "VEC3"
    },
    {
      "bufferView": 2,
      "byteOffset": 32976,
      "componentType": 5126,
      "count": 204,
      "max": [
        1.0,
        1.0,
        1.0
      ],
      "min": [
        -1.0,
        -1.0,
        -1.0
      ],
      "type": "VEC3"
    },
    {
      "bufferView": 1,
      "byteOffset": 10176,
      "componentType": 5126,
      "count": 204,
      "max": [
        0.625,
        0.5
      ],
      "min": [
        0.3749999403953552,
        0.25
      ],
      "type": "VEC2"
    },
    {
      "bufferView": 0,
      "byteOffset": 17040,
      "componentType": 5125,
      "count": 312,
      "type": "SCALAR"
    },
    {
      "bufferView": 2,
      "byteOffset": 35424,
      "componentType": 5126,
      "count": 206,
      "max": [
        0.8868072032928467,
        1.3051927089691162,
        3.4942100048065186
      ],
      "min": [
        -0.8868072032928467,
        0.14856453239917755,
        -0.9068071842193604
      ],
      "type": "VEC3"
    },
    {
      "bufferView": 2,
      "byteOffset": 37896,
      "componentType": 5126,
      "count": 206,
      "max": [
        1.0,
        1.0,
        1.0
      ],
      "min": [
        -1.0,
        -0.9951868653297424,
        -1.0
      ],
      "type": "VEC3"
    },
    {
      "bufferView": 1,
      "byteOffset": 11808,
      "componentType": 5126,
      "count": 206,
      "max": [
        0.6250001192092896,
        0.5000000596046448
      ],
      "min": [
        0.3749999701976776,
        0.25
      ],
      "type": "VEC2"
    },
    {
      "bufferView": 0,
      "byteOffset": 18288,
      "componentType": 5125,
      "count": 1068,
      "type": "SCALAR"
    },
    {
      "bufferView": 2,
      "byteOffset": 40368,
      "componentType": 5126,
      "count": 271,
      "max": [
        0.8958607912063599,
        0.1074538603425026,
        2.109468460083008
      ],
      "min": [
        -0.8958607912063599,
        -0.1074538603425026,
        2.0724682807922363
      ],
      "type": "VEC3"
    },
    {
      "bufferView": 2,
      "byteOffset": 43620,
      "componentType": 5126,
      "count": 271,
      "max": [
        0.995023787021637,
        0.992887556552887,
        0.9904365539550781
      ],
      "min": [
        -0.995023787021637,
        -0.9903841018676758,
        -1.0
      ],
      "type": "VEC3"
    },
    {
      "bufferView": 1,
      "byteOffset": 13456,
      "componentType": 5126,
      "count": 271,
      "max": [
        0.375,
        0.75
      ],
      "min": [
        0.125,
        0.5
      ],
      "type": "VEC2"
    },
    {
      "bufferView": 0,
      "byteOffset": 22560,
      "componentType": 5125,
      "count": 936,
      "type": "SCALAR"
    },
    {
      "bufferView": 2,
      "byteOffset": 46872,
      "componentType": 5126,
      "count": 214,
      "max": [
        1.0,
        1.0,
        1.0
      ],
      "min": [
        -1.0,
        -1.0,
        -1.0
      ],
      "type": "VEC3"
    },
    {
      "bufferView": 2,
      "byteOffset": 49440,
      "componentType": 5126,
      "count": 214,
      "max": [
        1.0,
        1.0,
        0.850487232208252
      ],
      "min": [
        -1.0,
        -1.0,
        -0.850487232208252
      ],
      "type": "VEC3"
    },
    {
      "bufferView": 1,
      "byteOffset": 15624,
      "componentType": 5126,
      "count": 214,
      "max": [
        1.0,
        1.0
      ],
      "min": [
        0.0,
        0.5
      ],
      "type": "VEC2"
    },
    {
      "bufferView": 0,
      "byteOffset": 26304,
      "componentType": 5125,
      "count": 480,
      "type": "SCALAR"
    },
    {
      "bufferView": 2,
      "byteOffset": 52008,
      "componentType": 5126,
      "count": 257,
      "max": [
        1.2117655277252197,
        8.718539237976074,
        0.8881829380989075
      ],
      "min": [
        -1.211766242980957,
        -1.2117658853530884,
        0.09070322662591934
      ],
      "type": "VEC3"
    },
    {
      "bufferView": 2,
      "byteOffset": 55092,
      "componentType": 5126,
      "count": 257,
      "max": [
        0.987136960029602,
        0.9914082288742065,
        0.9904494285583496
      ],
      "min": [
        -0.987136960029602,
        -0.9919160604476929,
        -0.9990248084068298
      ],
      "type": "VEC3"
    },
    {
      "bufferView": 1,
      "byteOffset": 17336,
      "componentType": 5126,
      "count": 257,
      "max": [
        1.0,
        0.9851160645484924
      ],
      "min": [
        0.0,
        0.0
      ],
      "type": "VEC2"
    },
    {
      "bufferView": 0,
      "byteOffset": 28224,
      "componentType": 5125,
      "count": 948,
      "type": "SCALAR"
    },
    {
      "bufferView": 2,
      "byteOffset": 58176,
      "componentType": 5126,
      "count": 45,
      "max": [
        0.9584987759590149,
        0.9584987759590149,
        0.14984725415706635
      ],
      "min": [
        -0.9584987163543701,
        -0.9584987759590149,
        -0.27107906341552734
      ],
      "type": "VEC3"
    },
    {
      "bufferView": 2,
      "byteOffset": 58716,
      "componentType": 5126,
      "count": 45,
      "max": [
        1.0,
        1.0,
        0.0
      ],
      "min": [
        -1.0,
        -1.0,
        0.0
      ],
      "type": "VEC3"
    },
    {
      "bufferView": 1,
      "byteOffset": 19392,
      "componentType": 5126,
      "count": 45,
      "max": [
        1.0,
        0.8166650533676147
      ],
      "min": [
        0.0,
        0.6904928088188171
      ],
      "type": "VEC2"
    },
    {
      "bufferView": 0,
      "byteOffset": 32016,
      "componentType": 5125,
      "count": 96,
      "type": "SCALAR"
    },
    {
      "bufferView": 2,
      "byteOffset": 59256,
      "componentType": 5126,
      "count": 584,
      "max": [
        0.7917582988739014,
        0.5195472240447998,
        0.0029476694762706757
      ],
      "min": [
        -0.7917582988739014,
        -0.5195472240447998,
        -0.05588492751121521
      ],
      "type": "VEC3"
    },
    {
      "bufferView": 2,
      "byteOffset": 66264,
      "componentType": 5126,
      "count": 584,
      "max": [
        0.9948475956916809,
        0.9948475956916809,
        0.6657224893569946
      ],
      "min": [
        -0.9948475956916809,
        -0.9948475956916809,
        -0.9827737808227539
      ],
      "type": "VEC3"
    },
    {
      "bufferView": 1,
      "byteOffset": 19752,
      "componentType": 5126,
      "count": 584,
      "max": [
        1.0,
        1.0
      ],
      "min": [
        0.0,
        0.01000000536441803
      ],
      "type": "VEC2"
    },
    {
      "bufferView": 0,
      "byteOffset": 32400,
      "componentType": 5125,
      "count": 1872,
      "type": "SCALAR"
    },
    {
      "bufferView": 2,
      "byteOffset": 73272,
      "componentType": 5126,
      "count": 257,
      "max": [
        1.2117586135864258,
        8.718539237976074,
        0.6375378370285034
      ],
      "min": [
        -1.211773157119751,
        -1.2117657661437988,
        -0.15994209051132202
      ],
      "type": "VEC3"
    },
    {
      "bufferView": 2,
      "byteOffset": 76356,
      "componentType": 5126,
      "count": 257,
      "max": [
        0.987136960029602,
        0.9914082288742065,
        0.9990248084068298
      ],
      "min": [
        -0.987136960029602,
        -0.9919160604476929,
        -0.9904494285583496
      ],
      "type": "VEC3"
    },
    {
      "bufferView": 1,
      "byteOffset": 24424,
      "componentType": 5126,
      "count": 257,
      "max": [
        1.0,
        0.9851160645484924
      ],
      "min": [
        0.0,
        0.0
      ],
      "type": "VEC2"
    },
    {
      "bufferView": 0,
      "byteOffset": 39888,
      "componentType": 5125,
      "count": 948,
      "type": "SCALAR"
    },
    {
      "bufferView": 2,
      "byteOffset": 79440,
      "componentType": 5126,
      "count": 45,
      "max": [
        0.9584910869598389,
        0.9584987163543701,
        0.9993200302124023
      ],
      "min": [
        -0.9585064053535461,
        -0.9584987163543701,
        0.5783936381340027
      ],
      "type": "VEC3"
    },
    {
      "bufferView": 2,
      "byteOffset": 79980,
      "componentType": 5126,
      "count": 45,
      "max": [
        1.0,
        1.0,
        0.0
      ],
      "min": [
        -1.0,
        -1.0,
        0.0
      ],
      "type": "VEC3"
    },
    {
      "bufferView": 1,
      "byteOffset": 26480,
      "componentType": 5126,
      "count": 45,
      "max": [
        1.0,
        0.8166650533676147
      ],
      "min": [
        0.0,
        0.6904928088188171
      ],
      "type": "VEC2"
    },
    {
      "bufferView": 0,
      "byteOffset": 43680,
      "componentType": 5125,
      "count": 96,
      "type": "SCALAR"
    }
  ],
  "asset": {
    "extras": {
      "author": "assetfactory (https://sketchfab.com/assetfactory)",
      "license": "SKETCHFAB Standard (https://sketchfab.com/licenses)",
      "source": "https://sketchfab.com/3d-models/unbranded-conventional-fridge-0d14bb0441be40e0b86d0ba380ed3d25",
      "title": "Unbranded conventional Fridge"
    },
    "generator": "Sketchfab-16.33.0",
    "version": "2.0"
  },
  "bufferViews": [
    {
      "buffer": 0,
      "byteLength": 44064,
      "name": "floatBufferViews",
      "target": 34963
    },
    {
      "buffer": 0,
      "byteLength": 26840,
      "byteOffset": 44064,
      "byteStride": 8,
      "name": "floatBufferViews",
      "target": 34962
    },
    {
      "buffer": 0,
      "byteLength": 80520,
      "byteOffset": 70904,
      "byteStride": 12,
      "name": "floatBufferViews",
      "target": 34962
    }
  ],
  "buffers": [
    {
      "byteLength": 151424,
      "uri": "scene.bin"
    }
  ],
  "materials": [
    {
      "doubleSided": true,
      "name": "Metal",
      "pbrMetallicRoughness": {
        "metallicFactor": 0.0,
        "roughnessFactor": 0.0394640048
      }
    },
    {
      "doubleSided": true,
      "name": "BlackPlastic",
      "pbrMetallicRoughness": {
        "baseColorFactor": [
          0.0651879173,
          0.0651879173,
          0.0651879173,
          1.0
        ],
        "metallicFactor": 0.0,
        "roughnessFactor": 0.6
      }
    }
  ],
  "meshes": [
    {
      "name": "Cube_Metal_0",
      "primitives": [
        {
          "attributes": {
            "NORMAL": 1,
            "POSITION": 0,
            "TEXCOORD_0": 2
          },
          "indices": 3,
          "material": 0,
          "mode": 4
        }
      ]
    },
    {
      "name": "Cube.001_BlackPlastic_0",
      "primitives": [
        {
          "attributes": {
            "NORMAL": 5,
            "POSITION": 4,
            "TEXCOORD_0": 6
          },
          "indices": 7,
          "material": 1,
          "mode": 4
        }
      ]
    },
    {
      "name": "Cube.002_BlackPlastic_0",
      "primitives": [
        {
          "attributes": {
            "NORMAL": 9,
            "POSITION": 8,
            "TEXCOORD_0": 10
          },
          "indices": 11,
          "material": 1,
          "mode": 4
        }
      ]
    },
    {
      "name": "Cube.003_Metal_0",
      "primitives": [
        {
          "attributes": {
            "NORMAL": 13,
            "POSITION": 12,
            "TEXCOORD_0": 14
          },
          "indices": 15,
          "material": 0,
          "mode": 4
        }
      ]
    },
    {
      "name": "Cube.004_BlackPlastic_0",
      "primitives": [
        {
          "attributes": {
            "NORMAL": 17,
            "POSITION": 16,
            "TEXCOORD_0": 18
          },
          "indices": 19,
          "material": 1,
          "mode": 4
        }
      ]
    },
    {
      "name": "Cylinder_Metal_0",
      "primitives": [
        {
          "attributes": {
            "NORMAL": 21,
            "POSITION": 20,
            "TEXCOORD_0": 22
          },
          "indices": 23,
          "material": 0,
          "mode": 4
        }
      ]
    },
    {
      "name": "Cylinder.001_BlackPlastic_0",
      "primitives": [
        {
          "attributes": {
            "NORMAL": 25,
            "POSITION": 24,
            "TEXCOORD_0": 26
          },
          "indices": 27,
          "material": 1,
          "mode": 4
        }
      ]
    },
    {
      "name": "Cylinder.001_Metal_0",
      "primitives": [
        {
          "attributes": {
            "NORMAL": 29,
            "POSITION": 28,
            "TEXCOORD_0": 30
          },
          "indices": 31,
          "material": 0,
          "mode": 4
        }
      ]
    },
    {
      "name": "Cylinder.002_BlackPlastic_0",
      "primitives": [
        {
          "attributes": {
            "NORMAL": 33,
            "POSITION": 32,
            "TEXCOORD_0": 34
          },
          "indices": 35,
          "material": 1,
          "mode": 4
        }
      ]
    },
    {
      "name": "Cylinder.003_BlackPlastic_0",
      "primitives": [
        {
          "attributes": {
            "NORMAL": 37,
            "POSITION": 36,
            "TEXCOORD_0": 38
          },
          "indices": 39,
          "material": 1,
          "mode": 4
        }
      ]
    },
    {
      "name": "Cylinder.003_Metal_0",
      "primitives": [
        {
          "attributes": {
            "NORMAL": 41,
            "POSITION": 40,
            "TEXCOORD_0": 42
          },
          "indices": 43,
          "material": 0,
          "mode": 4
        }
      ]
    }
  ],
  "nodes": [
    {
      "children": [
        1
      ],
      "matrix": [
        1.0,
        0.0,
        0.0,
        0.0,
        0.0,
        2.220446049250313e-16,
        -1.0,
        0.0,
        0.0,
        1.0,
        2.220446049250313e-16,
        0.0,
        0.0,
        0.0,
        0.0,
        1.0
      ],
      "name": "Sketchfab_model"
    },
    {
      "children": [
        2
      ],
      "matrix": [
        1.0,
        0.0,
        0.0,
        0.0,
        0.0,
        0.0,
        1.0,
        0.0,
        0.0,
        -1.0,
        0.0,
        0.0,
        0.0,
        0.0,
        0.0,
        1.0
      ],
      "name": "Fridge.fbx"
    },
    {
      "children": [
        3,
        5,
        7,
        9,
        11,
        13,
        15,
        18,
        20
      ],
      "name": "RootNode"
    },
    {
      "children": [
        4
      ],
      "matrix": [
        100.0,
        0.0,
        0.0,
        0.0,
        0.0,
        -1.629206793918314e-05,
        -99.99999999999868,
        0.0,
        0.0,
        99.99999999999868,
        -1.629206793918314e-05,
        0.0,
        0.0,
        -126.24624633789063,
        0.0,
        1.0
      ],
      "name": "Cube"
    },
    {
      "mesh": 0,
      "name": "Cube_Metal_0"
    },
    {
      "children": [
        6
      ],
      "matrix": [
        100.0,
        0.0,
        0.0,
        0.0,
        0.0,
        -1.629206793918314e-05,
        -99.99999999999868,
        0.0,
        0.0,
        99.99999999999868,
        -1.629206793918314e-05,
        0.0,
        0.0,
        -126.24624633789063,
        0.0,
        1.0
      ],
      "name": "Cube.001"
    },
    {
      "mesh": 1,
      "name": "Cube.001_BlackPlastic_0"
    },
    {
      "children": [
        8
      ],
      "matrix": [
        100.0,
        0.0,
        0.0,
        0.0,
        0.0,
        -1.629206793918314e-05,
        -99.99999999999868,
        0.0,
        0.0,
        99.99999999999868,
        -1.629206793918314e-05,
        0.0,
        0.0,
        -126.24624633789063,
        0.0,
        1.0
      ],
      "name": "Cube.002"
    },
    {
      "mesh": 2,
      "name": "Cube.002_BlackPlastic_0"
    },
    {
      "children": [
        10
      ],
      "matrix": [
        100.0,
        0.0,
        0.0,
        0.0,
        0.0,
        -1.629206793918314e-05,
        -99.99999999999868,
        0.0,
        0.0,
        99.99999999999868,
        -1.629206793918314e-05,
        0.0,
        0.0,
        -126.24624633789063,
        0.0,
        1.0
      ],
      "name": "Cube.003"
    },
    {
      "mesh": 3,
      "name": "Cube.003_Metal_0"
    },
    {
      "children": [
        12
      ],
      "matrix": [
        100.0,
        0.0,
        0.0,
        0.0,
        0.0,
        -1.629206793918314e-05,
        -99.99999999999868,
        0.0,
        0.0,
        99.99999999999868,
        -1.629206793918314e-05,
        0.0,
        0.0,
        -126.24624633789063,
        0.0,
        1.0
      ],
      "name": "Cube.004"
    },
    {
      "mesh": 4,
      "name": "Cube.004_BlackPlastic_0"
    },
    {
      "children": [
        14
      ],
      "matrix": [
        3.3512954711914063,
        0.0,
        0.0,
        0.0,
        0.0,
        -5.459953350092717e-07,
        -3.351295471191362,
        0.0,
        0.0,
        3.351295471191362,
        -5.459953350092717e-07,
        0.0,
        83.87432098388672,
        79.3927230834961,
        -2.893080472946167,
        1.0
      ],
      "name": "Cylinder"
    },
    {
      "mesh": 5,
      "name": "Cylinder_Metal_0"
    },
    {
      "children": [
        16,
        17
      ],
      "matrix": [
        3.3512954711914063,
        0.0,
        0.0,
        0.0,
        0.0,
        -5.459953350092717e-07,
        -3.351295471191362,
        0.0,
        0.0,
        3.351295471191362,
        -5.459953350092717e-07,
        0.0,
        83.87432098388672,
        222.8417205810547,
        -2.893080472946167,
        1.0
      ],
      "name": "Cylinder.001"
    },
    {
      "mesh": 6,
      "name": "Cylinder.001_BlackPlastic_0"
    },
    {
      "mesh": 7,
      "name": "Cylinder.001_Metal_0"
    },
    {
      "children": [
        19
      ],
      "matrix": [
        100.0,
        0.0,
        0.0,
        0.0,
        0.0,
        -1.629206793918314e-05,
        -99.99999999999868,
        0.0,
        0.0,
        99.99999999999868,
        -1.629206793918314e-05,
        0.0,
        0.0,
        -216.9269561767578,
        -72.68785858154297,
        1.0
      ],
      "name": "Cylinder.002"
    },
    {
      "mesh": 8,
      "name": "Cylinder.002_BlackPlastic_0"
    },
    {
      "children": [
        21,
        22
      ],
      "matrix": [
        3.3512954711914063,
        0.0,
        0.0,
        0.0,
        0.0,
        -5.459953350092717e-07,
        -3.351295471191362,
        0.0,
        0.0,
        3.351295471191362,
        -5.459953350092717e-07,
        0.0,
        83.87432098388672,
        -218.9999542236328,
        -2.893080472946167,
        1.0
      ],
      "name": "Cylinder.003"
    },
    {
      "mesh": 9,
      "name": "Cylinder.003_BlackPlastic_0"
    },
    {
      "mesh": 10,
      "name": "Cylinder.003_Metal_0"
    }
  ],
  "scene": 0,
  "scenes": [
    {
      "name": "Sketchfab_Scene",
      "nodes": [
        0
      ]
    }
  ]
}
